<?xml version="1.0" encoding="UTF-8" standalone="no"?>
<svg
   xmlns:dc="http://purl.org/dc/elements/1.1/"
   xmlns:cc="http://creativecommons.org/ns#"
   xmlns:rdf="http://www.w3.org/1999/02/22-rdf-syntax-ns#"
   xmlns:svg="http://www.w3.org/2000/svg"
   xmlns="http://www.w3.org/2000/svg"
   xmlns:sodipodi="http://sodipodi.sourceforge.net/DTD/sodipodi-0.dtd"
   xmlns:inkscape="http://www.inkscape.org/namespaces/inkscape"
   width="640"
   height="640"
   viewBox="0 0 640 640"
   version="1.1"
   xml:space="preserve"
   style="clip-rule:evenodd;fill-rule:evenodd;stroke-linejoin:round;stroke-miterlimit:2"
   id="svg889"
   sodipodi:docname="bareclad640x640.svg"
   inkscape:export-filename="C:\Users\eldle\Desktop\bareclad_mini.png"
   inkscape:export-xdpi="96"
   inkscape:export-ydpi="96"
   inkscape:version="1.0.1 (3bc2e813f5, 2020-09-07)"><metadata
   id="metadata895"><rdf:RDF><cc:Work
       rdf:about=""><dc:format>image/svg+xml</dc:format><dc:type
         rdf:resource="http://purl.org/dc/dcmitype/StillImage" /><dc:title></dc:title></cc:Work></rdf:RDF></metadata><defs
   id="defs893" /><sodipodi:namedview
   pagecolor="#ffffff"
   bordercolor="#666666"
   borderopacity="1"
   objecttolerance="10"
   gridtolerance="10"
   guidetolerance="10"
   inkscape:pageopacity="0"
   inkscape:pageshadow="2"
   inkscape:window-width="3440"
   inkscape:window-height="1377"
   id="namedview891"
   showgrid="false"
   fit-margin-top="100"
   fit-margin-left="100"
   fit-margin-right="100"
   fit-margin-bottom="100"
   inkscape:zoom="1.8546875"
   inkscape:cx="310.73499"
   inkscape:cy="341.56698"
   inkscape:window-x="-8"
   inkscape:window-y="-8"
   inkscape:window-maximized="1"
   inkscape:current-layer="g913" />
    <g
   transform="matrix(0.77892487,0,0,0.77892487,-325.98901,-1046.1349)"
   id="g887">
        <g
   transform="translate(-106.269,163.477)"
   id="g885">
            
            
            <g
   id="g913"
   transform="translate(12.837919,4.715731e-5)"><g
     id="g873">
                
                
            </g><g
     id="g936"
     transform="translate(-10.27056,7.5694835e-5)"><g
       transform="translate(8.46262,-2.03584)"
       id="g859">
                
                
                
                <g
   transform="matrix(281.578,0,0,281.578,922.14112,1688.6)"
   id="g847">
                    <path
   d="M 0.247,0.01 C 0.182,0.01 0.132,-0.01 0.095,-0.049 0.059,-0.088 0.041,-0.144 0.041,-0.216 c 0,-0.065 0.012,-0.125 0.037,-0.178 0.025,-0.053 0.06,-0.095 0.105,-0.124 0.045,-0.03 0.097,-0.045 0.154,-0.045 0.063,0 0.123,0.013 0.179,0.039 l -0.06,0.14 c -0.043,-0.019 -0.08,-0.029 -0.11,-0.029 -0.02,0 -0.039,0.008 -0.056,0.023 -0.017,0.016 -0.031,0.039 -0.042,0.07 -0.012,0.032 -0.017,0.062 -0.017,0.092 0,0.03 0.005,0.051 0.015,0.065 0.009,0.014 0.025,0.021 0.046,0.021 0.023,0 0.046,-0.004 0.068,-0.011 0.022,-0.008 0.045,-0.018 0.07,-0.031 v 0.15 C 0.404,-0.02 0.377,-0.009 0.348,-0.001 0.319,0.006 0.285,0.01 0.247,0.01 Z"
   style="fill:#d2bd9e;fill-rule:nonzero"
   id="path845" />
                </g>
                
                
                
                <path
   d="m 859.285,1493.64 -2.714,12.79 c -3.483,16.04 -7.607,29.84 -12.374,41.39 h 1.1 c 4.4,-5.41 7.952,-9.15 10.656,-11.21 2.704,-2.06 5.751,-3.67 9.143,-4.81 3.391,-1.15 7.332,-1.72 11.824,-1.72 14.207,0 25.114,5.11 32.722,15.33 7.608,10.22 11.412,24.91 11.412,44.07 0,16.31 -3.231,32.9 -9.693,49.77 -6.462,16.86 -14.826,29.76 -25.092,38.7 -10.266,8.94 -21.677,13.41 -34.235,13.41 -7.607,0 -14.253,-1.47 -19.936,-4.41 -5.682,-2.93 -11.411,-8.11 -17.186,-15.53 h -1.1 l -6.737,17.19 h -42.209 l 41.224,-194.97 z m -4.363,79.2 c -4.583,0 -8.937,2.61 -13.062,7.84 -4.125,5.22 -7.401,12.28 -9.83,21.17 -2.429,8.89 -3.644,17.92 -3.644,27.08 0,5.96 0.871,10.73 2.612,14.3 1.742,3.58 4.446,5.37 8.112,5.37 4.492,0 8.891,-2.71 13.199,-8.12 4.308,-5.4 7.791,-12.55 10.449,-21.44 2.659,-8.9 3.988,-17.69 3.988,-26.4 0,-13.2 -3.942,-19.8 -11.824,-19.8 z"
   style="fill:#d2bd9e;fill-rule:nonzero"
   id="path857" />
            </g><g
       transform="matrix(1.4320599,0,0,1.4320599,-512.769,-2173.0599)"
       id="g865"
       style="clip-rule:evenodd;fill-rule:evenodd;stroke-linejoin:round;stroke-miterlimit:2">
                    <g
   transform="matrix(279.317,0,0,279.317,788.133,2696.57)"
   id="g863">
                        <path
   d="M 0.035,-0.263 C 0.049,-0.265 0.061,-0.267 0.071,-0.271 0.081,-0.274 0.089,-0.279 0.096,-0.284 0.102,-0.29 0.107,-0.298 0.11,-0.307 0.113,-0.315 0.115,-0.326 0.115,-0.339 0.115,-0.349 0.114,-0.36 0.113,-0.373 0.112,-0.385 0.111,-0.399 0.109,-0.412 0.108,-0.426 0.107,-0.441 0.106,-0.455 0.105,-0.469 0.104,-0.483 0.104,-0.496 c 0,-0.02 0.003,-0.04 0.007,-0.059 0.005,-0.019 0.013,-0.036 0.023,-0.051 0.011,-0.014 0.024,-0.026 0.041,-0.035 0.017,-0.009 0.037,-0.013 0.06,-0.013 h 0.011 c 0.001,0 0.002,0 0.003,0 l -0.002,0.026 c 0,0 -0.001,0 -0.002,0 H 0.242 0.237 c -0.014,0 -0.026,0.002 -0.036,0.006 -0.01,0.003 -0.018,0.009 -0.024,0.018 -0.007,0.008 -0.012,0.018 -0.015,0.031 -0.003,0.012 -0.005,0.027 -0.005,0.045 0,0.01 0.001,0.021 0.002,0.032 l 0.005,0.067 c 0.001,0.011 0.002,0.023 0.002,0.034 0,0.016 -0.002,0.031 -0.004,0.046 -0.002,0.015 -0.006,0.029 -0.012,0.041 -0.006,0.013 -0.014,0.024 -0.024,0.033 -0.011,0.01 -0.024,0.017 -0.041,0.022 v 0.002 c 0.015,0.005 0.028,0.012 0.038,0.021 0.01,0.008 0.018,0.018 0.023,0.03 0.006,0.011 0.01,0.024 0.012,0.037 0.002,0.014 0.003,0.029 0.003,0.044 0,0.014 -0.001,0.028 -0.002,0.042 -0.002,0.014 -0.003,0.028 -0.005,0.042 -0.002,0.014 -0.003,0.027 -0.005,0.041 -0.001,0.013 -0.002,0.026 -0.002,0.039 0,0.016 0.002,0.03 0.005,0.042 C 0.155,0.098 0.16,0.108 0.167,0.116 0.173,0.123 0.181,0.129 0.19,0.132 0.2,0.136 0.211,0.137 0.224,0.137 h 0.007 c 0.001,0 0.002,0 0.003,0 L 0.235,0.163 H 0.228 0.221 C 0.199,0.163 0.18,0.159 0.164,0.151 0.148,0.143 0.135,0.131 0.125,0.117 0.115,0.103 0.107,0.087 0.103,0.069 0.098,0.05 0.095,0.031 0.095,0.011 c 0,-0.01 0.001,-0.02 0.002,-0.03 0,-0.011 0.002,-0.022 0.003,-0.032 0.001,-0.011 0.002,-0.022 0.004,-0.033 0.001,-0.01 0.002,-0.021 0.004,-0.031 0.001,-0.01 0.002,-0.019 0.003,-0.028 0,-0.009 0.001,-0.018 0.001,-0.025 C 0.112,-0.18 0.11,-0.191 0.107,-0.199 0.104,-0.207 0.099,-0.214 0.093,-0.22 0.086,-0.226 0.078,-0.23 0.068,-0.233 0.059,-0.236 0.047,-0.238 0.034,-0.24 Z"
   style="fill:#586e77;fill-rule:nonzero"
   id="path861" />
                    </g>
                </g><g
       transform="matrix(-1,0,0,1,2038.32,-1007.97)"
       id="g871"
       style="clip-rule:evenodd;fill-rule:evenodd;stroke-linejoin:round;stroke-miterlimit:2">
                    <g
   transform="matrix(400,0,0,400,788.133,2696.57)"
   id="g869">
                        <path
   d="M 0.035,-0.263 C 0.049,-0.265 0.061,-0.267 0.071,-0.271 0.081,-0.274 0.089,-0.279 0.096,-0.284 0.102,-0.29 0.107,-0.298 0.11,-0.307 0.113,-0.315 0.115,-0.326 0.115,-0.339 0.115,-0.349 0.114,-0.36 0.113,-0.373 0.112,-0.385 0.111,-0.399 0.109,-0.412 0.108,-0.426 0.107,-0.441 0.106,-0.455 0.105,-0.469 0.104,-0.483 0.104,-0.496 c 0,-0.02 0.003,-0.04 0.007,-0.059 0.005,-0.019 0.013,-0.036 0.023,-0.051 0.011,-0.014 0.024,-0.026 0.041,-0.035 0.017,-0.009 0.037,-0.013 0.06,-0.013 h 0.011 c 0.001,0 0.002,0 0.003,0 l -0.002,0.026 c 0,0 -0.001,0 -0.002,0 H 0.242 0.237 c -0.014,0 -0.026,0.002 -0.036,0.006 -0.01,0.003 -0.018,0.009 -0.024,0.018 -0.007,0.008 -0.012,0.018 -0.015,0.031 -0.003,0.012 -0.005,0.027 -0.005,0.045 0,0.01 0.001,0.021 0.002,0.032 l 0.005,0.067 c 0.001,0.011 0.002,0.023 0.002,0.034 0,0.016 -0.002,0.031 -0.004,0.046 -0.002,0.015 -0.006,0.029 -0.012,0.041 -0.006,0.013 -0.014,0.024 -0.024,0.033 -0.011,0.01 -0.024,0.017 -0.041,0.022 v 0.002 c 0.015,0.005 0.028,0.012 0.038,0.021 0.01,0.008 0.018,0.018 0.023,0.03 0.006,0.011 0.01,0.024 0.012,0.037 0.002,0.014 0.003,0.029 0.003,0.044 0,0.014 -0.001,0.028 -0.002,0.042 -0.002,0.014 -0.003,0.028 -0.005,0.042 -0.002,0.014 -0.003,0.027 -0.005,0.041 -0.001,0.013 -0.002,0.026 -0.002,0.039 0,0.016 0.002,0.03 0.005,0.042 C 0.155,0.098 0.16,0.108 0.167,0.116 0.173,0.123 0.181,0.129 0.19,0.132 0.2,0.136 0.211,0.137 0.224,0.137 h 0.007 c 0.001,0 0.002,0 0.003,0 L 0.235,0.163 H 0.228 0.221 C 0.199,0.163 0.18,0.159 0.164,0.151 0.148,0.143 0.135,0.131 0.125,0.117 0.115,0.103 0.107,0.087 0.103,0.069 0.098,0.05 0.095,0.031 0.095,0.011 c 0,-0.01 0.001,-0.02 0.002,-0.03 0,-0.011 0.002,-0.022 0.003,-0.032 0.001,-0.011 0.002,-0.022 0.004,-0.033 0.001,-0.01 0.002,-0.021 0.004,-0.031 0.001,-0.01 0.002,-0.019 0.003,-0.028 0,-0.009 0.001,-0.018 0.001,-0.025 C 0.112,-0.18 0.11,-0.191 0.107,-0.199 0.104,-0.207 0.099,-0.214 0.093,-0.22 0.086,-0.226 0.078,-0.23 0.068,-0.233 0.059,-0.236 0.047,-0.238 0.034,-0.24 Z"
   style="fill:#586e77;fill-rule:nonzero"
   id="path867" />
                    </g>
                </g><g
       transform="matrix(0.14843,0,0,0.14843,930.31874,1330.71)"
       id="g883">
                <g
   transform="matrix(281.578,0,0,281.578,953.434,2516.51)"
   id="g877">
                    <path
   d="M 0.318,0 H 0.235 V -0.64 H 0.009 V -0.714 H 0.544 V -0.64 H 0.318 Z"
   style="fill-rule:nonzero"
   id="path875" />
                </g>
                <g
   transform="matrix(281.578,0,0,281.578,1100.76,2516.51)"
   id="g881">
                    <path
   d="M 0.414,0 0.172,-0.633 H 0.168 c 0.005,0.05 0.007,0.11 0.007,0.179 V 0 H 0.098 v -0.714 h 0.125 l 0.226,0.589 H 0.453 L 0.681,-0.714 H 0.805 V 0 H 0.722 v -0.46 c 0,-0.053 0.002,-0.11 0.007,-0.172 H 0.725 L 0.481,0 Z"
   style="fill-rule:nonzero"
   id="path879" />
                </g>
            </g></g></g>
        </g>
    </g>
</svg>
