<?xml version="1.0" encoding="UTF-8" standalone="no"?>
<!DOCTYPE svg PUBLIC "-//W3C//DTD SVG 1.1//EN" "http://www.w3.org/Graphics/SVG/1.1/DTD/svg11.dtd">
<svg width="100%" height="100%" viewBox="0 0 1434 327" version="1.1" xmlns="http://www.w3.org/2000/svg" xmlns:xlink="http://www.w3.org/1999/xlink" xml:space="preserve" xmlns:serif="http://www.serif.com/" style="fill-rule:evenodd;clip-rule:evenodd;stroke-linejoin:round;stroke-miterlimit:2;">
    <g transform="matrix(1,0,0,1,-523.291,-1590.46)">
        <g transform="matrix(1,0,0,1,-106.269,163.477)">
            <g transform="matrix(1,0,0,1,8.46262,-2.03584)">
                <g transform="matrix(281.578,-3.08914e-14,3.08914e-14,281.578,924.155,1688.6)">
                    <path d="M0.276,-0.142C0.292,-0.142 0.308,-0.152 0.323,-0.171C0.337,-0.19 0.349,-0.215 0.358,-0.247C0.367,-0.279 0.371,-0.31 0.371,-0.341C0.371,-0.362 0.368,-0.379 0.361,-0.392C0.355,-0.405 0.345,-0.411 0.331,-0.411C0.306,-0.411 0.284,-0.391 0.264,-0.349C0.244,-0.308 0.234,-0.262 0.234,-0.212C0.234,-0.165 0.248,-0.142 0.276,-0.142ZM0.479,0L0.328,0L0.333,-0.06L0.329,-0.06C0.311,-0.035 0.291,-0.017 0.27,-0.006C0.249,0.004 0.225,0.01 0.198,0.01C0.147,0.01 0.108,-0.008 0.081,-0.045C0.054,-0.081 0.041,-0.133 0.041,-0.201C0.041,-0.259 0.053,-0.319 0.077,-0.379C0.1,-0.44 0.13,-0.486 0.167,-0.517C0.203,-0.548 0.243,-0.563 0.287,-0.563C0.314,-0.563 0.339,-0.557 0.359,-0.545C0.38,-0.532 0.399,-0.513 0.415,-0.485L0.419,-0.485L0.445,-0.553L0.596,-0.553L0.479,0Z" style="fill:rgb(210,189,158);fill-rule:nonzero;"/>
                </g>
                <g transform="matrix(281.578,-3.08914e-14,3.08914e-14,281.578,1083.79,1688.6)">
                    <path d="M0.44,-0.563C0.458,-0.563 0.471,-0.562 0.479,-0.559L0.438,-0.372C0.42,-0.379 0.4,-0.383 0.378,-0.383C0.344,-0.383 0.318,-0.371 0.298,-0.348C0.278,-0.325 0.262,-0.29 0.252,-0.243L0.2,0L0.011,0L0.128,-0.553L0.279,-0.553L0.27,-0.461L0.274,-0.461C0.295,-0.497 0.318,-0.524 0.343,-0.539C0.368,-0.555 0.4,-0.563 0.44,-0.563Z" style="fill:rgb(210,189,158);fill-rule:nonzero;"/>
                </g>
                <g transform="matrix(281.578,-3.08914e-14,3.08914e-14,281.578,1204.02,1688.6)">
                    <path d="M0.26,0.01C0.191,0.01 0.137,-0.01 0.099,-0.048C0.06,-0.087 0.041,-0.14 0.041,-0.209C0.041,-0.278 0.055,-0.34 0.082,-0.395C0.109,-0.45 0.146,-0.492 0.194,-0.52C0.241,-0.549 0.296,-0.563 0.358,-0.563C0.42,-0.563 0.468,-0.549 0.504,-0.521C0.539,-0.493 0.557,-0.456 0.557,-0.409C0.557,-0.344 0.532,-0.294 0.481,-0.259C0.43,-0.224 0.356,-0.206 0.26,-0.206L0.231,-0.206L0.231,-0.198C0.231,-0.15 0.258,-0.126 0.311,-0.126C0.337,-0.126 0.362,-0.13 0.387,-0.137C0.411,-0.145 0.44,-0.157 0.471,-0.174L0.471,-0.04C0.435,-0.021 0.401,-0.009 0.369,-0.001C0.338,0.006 0.301,0.01 0.26,0.01ZM0.337,-0.435C0.317,-0.435 0.299,-0.424 0.281,-0.401C0.264,-0.378 0.254,-0.353 0.25,-0.324L0.264,-0.324C0.3,-0.324 0.327,-0.331 0.348,-0.344C0.368,-0.358 0.378,-0.376 0.378,-0.398C0.378,-0.408 0.375,-0.417 0.368,-0.424C0.362,-0.431 0.351,-0.435 0.337,-0.435Z" style="fill:rgb(210,189,158);fill-rule:nonzero;"/>
                </g>
                <g transform="matrix(281.578,-3.08914e-14,3.08914e-14,281.578,1358.64,1688.6)">
                    <path d="M0.247,0.01C0.182,0.01 0.132,-0.01 0.095,-0.049C0.059,-0.088 0.041,-0.144 0.041,-0.216C0.041,-0.281 0.053,-0.341 0.078,-0.394C0.103,-0.447 0.138,-0.489 0.183,-0.518C0.228,-0.548 0.28,-0.563 0.337,-0.563C0.4,-0.563 0.46,-0.55 0.516,-0.524L0.456,-0.384C0.413,-0.403 0.376,-0.413 0.346,-0.413C0.326,-0.413 0.307,-0.405 0.29,-0.39C0.273,-0.374 0.259,-0.351 0.248,-0.32C0.236,-0.288 0.231,-0.258 0.231,-0.228C0.231,-0.198 0.236,-0.177 0.246,-0.163C0.255,-0.149 0.271,-0.142 0.292,-0.142C0.315,-0.142 0.338,-0.146 0.36,-0.153C0.382,-0.161 0.405,-0.171 0.43,-0.184L0.43,-0.034C0.404,-0.02 0.377,-0.009 0.348,-0.001C0.319,0.006 0.285,0.01 0.247,0.01Z" style="fill:rgb(210,189,158);fill-rule:nonzero;"/>
                </g>
                <g transform="matrix(281.578,-3.08914e-14,3.08914e-14,281.578,1572.38,1688.6)">
                    <path d="M0.276,-0.142C0.292,-0.142 0.308,-0.152 0.323,-0.171C0.337,-0.19 0.349,-0.215 0.358,-0.247C0.367,-0.279 0.371,-0.31 0.371,-0.341C0.371,-0.362 0.368,-0.379 0.361,-0.392C0.355,-0.405 0.345,-0.411 0.331,-0.411C0.306,-0.411 0.284,-0.391 0.264,-0.349C0.244,-0.308 0.234,-0.262 0.234,-0.212C0.234,-0.165 0.248,-0.142 0.276,-0.142ZM0.479,0L0.328,0L0.333,-0.06L0.329,-0.06C0.311,-0.035 0.291,-0.017 0.27,-0.006C0.249,0.004 0.225,0.01 0.198,0.01C0.147,0.01 0.108,-0.008 0.081,-0.045C0.054,-0.081 0.041,-0.133 0.041,-0.201C0.041,-0.259 0.053,-0.319 0.077,-0.379C0.1,-0.44 0.13,-0.486 0.167,-0.517C0.203,-0.548 0.243,-0.563 0.287,-0.563C0.314,-0.563 0.339,-0.557 0.359,-0.545C0.38,-0.532 0.399,-0.513 0.415,-0.485L0.419,-0.485L0.445,-0.553L0.596,-0.553L0.479,0Z" style="fill:rgb(210,189,158);fill-rule:nonzero;"/>
                </g>
                <path d="M1857.42,1493.64L1911.06,1493.64L1869.71,1688.61L1827.23,1688.61L1828.6,1671.69L1827.5,1671.69C1822.28,1678.93 1816.78,1684.02 1811,1686.95C1805.23,1689.89 1798.45,1691.36 1790.65,1691.36C1776.17,1691.36 1765.17,1686.25 1757.66,1676.03C1750.14,1665.81 1746.38,1651.12 1746.38,1631.96C1746.38,1615.64 1749.66,1599.01 1756.21,1582.05C1762.77,1565.09 1771.18,1552.19 1781.44,1543.35C1791.71,1534.5 1803.03,1530.08 1815.4,1530.08C1822.28,1530.08 1828.05,1531.48 1832.73,1534.27C1837.4,1537.07 1842.49,1542.64 1847.99,1550.98L1849.09,1550.98L1849.36,1545.89C1850.01,1533.24 1851.15,1523.3 1852.8,1516.06L1857.42,1493.64ZM1812.52,1648.6C1817.1,1648.6 1821.48,1645.91 1825.65,1640.55C1829.82,1635.19 1833.14,1628.02 1835.61,1619.04C1838.09,1610.05 1839.33,1601.25 1839.33,1592.64C1839.33,1579.44 1835.66,1572.84 1828.33,1572.84C1823.84,1572.84 1819.44,1575.54 1815.13,1580.95C1810.82,1586.36 1807.34,1593.49 1804.68,1602.33C1802.02,1611.18 1800.69,1620.04 1800.69,1628.93C1800.69,1642.04 1804.63,1648.6 1812.52,1648.6Z" style="fill:rgb(210,189,158);fill-rule:nonzero;"/>
                <path d="M1536.47,1493.64L1589.67,1493.64L1548.45,1688.61L1495.24,1688.61L1536.47,1493.64Z" style="fill:rgb(210,189,158);fill-rule:nonzero;"/>
                <path d="M859.285,1493.64L856.571,1506.43C853.088,1522.47 848.964,1536.27 844.197,1547.82L845.297,1547.82C849.697,1542.41 853.249,1538.67 855.953,1536.61C858.657,1534.55 861.704,1532.94 865.096,1531.8C868.487,1530.65 872.428,1530.08 876.92,1530.08C891.127,1530.08 902.034,1535.19 909.642,1545.41C917.25,1555.63 921.054,1570.32 921.054,1589.48C921.054,1605.79 917.823,1622.38 911.361,1639.25C904.899,1656.11 896.535,1669.01 886.269,1677.95C876.003,1686.89 864.592,1691.36 852.034,1691.36C844.427,1691.36 837.781,1689.89 832.098,1686.95C826.416,1684.02 820.687,1678.84 814.912,1671.42L813.812,1671.42L807.075,1688.61L764.866,1688.61L806.09,1493.64L859.285,1493.64ZM854.922,1572.84C850.339,1572.84 845.985,1575.45 841.86,1580.68C837.735,1585.9 834.459,1592.96 832.03,1601.85C829.601,1610.74 828.386,1619.77 828.386,1628.93C828.386,1634.89 829.257,1639.66 830.998,1643.23C832.74,1646.81 835.444,1648.6 839.11,1648.6C843.602,1648.6 848.001,1645.89 852.309,1640.48C856.617,1635.08 860.1,1627.93 862.758,1619.04C865.417,1610.14 866.746,1601.35 866.746,1592.64C866.746,1579.44 862.804,1572.84 854.922,1572.84Z" style="fill:rgb(210,189,158);fill-rule:nonzero;"/>
            </g>
            <g>
                <g transform="matrix(1.43206,0,0,1.43206,-512.769,-2173.06)">
                    <g transform="matrix(279.317,0,0,279.317,788.133,2696.57)">
                        <path d="M0.035,-0.263C0.049,-0.265 0.061,-0.267 0.071,-0.271C0.081,-0.274 0.089,-0.279 0.096,-0.284C0.102,-0.29 0.107,-0.298 0.11,-0.307C0.113,-0.315 0.115,-0.326 0.115,-0.339C0.115,-0.349 0.114,-0.36 0.113,-0.373C0.112,-0.385 0.111,-0.399 0.109,-0.412C0.108,-0.426 0.107,-0.441 0.106,-0.455C0.105,-0.469 0.104,-0.483 0.104,-0.496C0.104,-0.516 0.107,-0.536 0.111,-0.555C0.116,-0.574 0.124,-0.591 0.134,-0.606C0.145,-0.62 0.158,-0.632 0.175,-0.641C0.192,-0.65 0.212,-0.654 0.235,-0.654L0.246,-0.654C0.247,-0.654 0.248,-0.654 0.249,-0.654L0.247,-0.628C0.247,-0.628 0.246,-0.628 0.245,-0.628L0.242,-0.628L0.237,-0.628C0.223,-0.628 0.211,-0.626 0.201,-0.622C0.191,-0.619 0.183,-0.613 0.177,-0.604C0.17,-0.596 0.165,-0.586 0.162,-0.573C0.159,-0.561 0.157,-0.546 0.157,-0.528C0.157,-0.518 0.158,-0.507 0.159,-0.496L0.164,-0.429C0.165,-0.418 0.166,-0.406 0.166,-0.395C0.166,-0.379 0.164,-0.364 0.162,-0.349C0.16,-0.334 0.156,-0.32 0.15,-0.308C0.144,-0.295 0.136,-0.284 0.126,-0.275C0.115,-0.265 0.102,-0.258 0.085,-0.253L0.085,-0.251C0.1,-0.246 0.113,-0.239 0.123,-0.23C0.133,-0.222 0.141,-0.212 0.146,-0.2C0.152,-0.189 0.156,-0.176 0.158,-0.163C0.16,-0.149 0.161,-0.134 0.161,-0.119C0.161,-0.105 0.16,-0.091 0.159,-0.077C0.157,-0.063 0.156,-0.049 0.154,-0.035C0.152,-0.021 0.151,-0.008 0.149,0.006C0.148,0.019 0.147,0.032 0.147,0.045C0.147,0.061 0.149,0.075 0.152,0.087C0.155,0.098 0.16,0.108 0.167,0.116C0.173,0.123 0.181,0.129 0.19,0.132C0.2,0.136 0.211,0.137 0.224,0.137L0.231,0.137C0.232,0.137 0.233,0.137 0.234,0.137L0.235,0.163L0.228,0.163L0.221,0.163C0.199,0.163 0.18,0.159 0.164,0.151C0.148,0.143 0.135,0.131 0.125,0.117C0.115,0.103 0.107,0.087 0.103,0.069C0.098,0.05 0.095,0.031 0.095,0.011C0.095,0.001 0.096,-0.009 0.097,-0.019C0.097,-0.03 0.099,-0.041 0.1,-0.051C0.101,-0.062 0.102,-0.073 0.104,-0.084C0.105,-0.094 0.106,-0.105 0.108,-0.115C0.109,-0.125 0.11,-0.134 0.111,-0.143C0.111,-0.152 0.112,-0.161 0.112,-0.168C0.112,-0.18 0.11,-0.191 0.107,-0.199C0.104,-0.207 0.099,-0.214 0.093,-0.22C0.086,-0.226 0.078,-0.23 0.068,-0.233C0.059,-0.236 0.047,-0.238 0.034,-0.24L0.035,-0.263Z" style="fill:rgb(88,110,119);fill-rule:nonzero;"/>
                    </g>
                </g>
                <g transform="matrix(-1,0,0,1,2865.1,-1007.97)">
                    <g transform="matrix(400,0,0,400,788.133,2696.57)">
                        <path d="M0.035,-0.263C0.049,-0.265 0.061,-0.267 0.071,-0.271C0.081,-0.274 0.089,-0.279 0.096,-0.284C0.102,-0.29 0.107,-0.298 0.11,-0.307C0.113,-0.315 0.115,-0.326 0.115,-0.339C0.115,-0.349 0.114,-0.36 0.113,-0.373C0.112,-0.385 0.111,-0.399 0.109,-0.412C0.108,-0.426 0.107,-0.441 0.106,-0.455C0.105,-0.469 0.104,-0.483 0.104,-0.496C0.104,-0.516 0.107,-0.536 0.111,-0.555C0.116,-0.574 0.124,-0.591 0.134,-0.606C0.145,-0.62 0.158,-0.632 0.175,-0.641C0.192,-0.65 0.212,-0.654 0.235,-0.654L0.246,-0.654C0.247,-0.654 0.248,-0.654 0.249,-0.654L0.247,-0.628C0.247,-0.628 0.246,-0.628 0.245,-0.628L0.242,-0.628L0.237,-0.628C0.223,-0.628 0.211,-0.626 0.201,-0.622C0.191,-0.619 0.183,-0.613 0.177,-0.604C0.17,-0.596 0.165,-0.586 0.162,-0.573C0.159,-0.561 0.157,-0.546 0.157,-0.528C0.157,-0.518 0.158,-0.507 0.159,-0.496L0.164,-0.429C0.165,-0.418 0.166,-0.406 0.166,-0.395C0.166,-0.379 0.164,-0.364 0.162,-0.349C0.16,-0.334 0.156,-0.32 0.15,-0.308C0.144,-0.295 0.136,-0.284 0.126,-0.275C0.115,-0.265 0.102,-0.258 0.085,-0.253L0.085,-0.251C0.1,-0.246 0.113,-0.239 0.123,-0.23C0.133,-0.222 0.141,-0.212 0.146,-0.2C0.152,-0.189 0.156,-0.176 0.158,-0.163C0.16,-0.149 0.161,-0.134 0.161,-0.119C0.161,-0.105 0.16,-0.091 0.159,-0.077C0.157,-0.063 0.156,-0.049 0.154,-0.035C0.152,-0.021 0.151,-0.008 0.149,0.006C0.148,0.019 0.147,0.032 0.147,0.045C0.147,0.061 0.149,0.075 0.152,0.087C0.155,0.098 0.16,0.108 0.167,0.116C0.173,0.123 0.181,0.129 0.19,0.132C0.2,0.136 0.211,0.137 0.224,0.137L0.231,0.137C0.232,0.137 0.233,0.137 0.234,0.137L0.235,0.163L0.228,0.163L0.221,0.163C0.199,0.163 0.18,0.159 0.164,0.151C0.148,0.143 0.135,0.131 0.125,0.117C0.115,0.103 0.107,0.087 0.103,0.069C0.098,0.05 0.095,0.031 0.095,0.011C0.095,0.001 0.096,-0.009 0.097,-0.019C0.097,-0.03 0.099,-0.041 0.1,-0.051C0.101,-0.062 0.102,-0.073 0.104,-0.084C0.105,-0.094 0.106,-0.105 0.108,-0.115C0.109,-0.125 0.11,-0.134 0.111,-0.143C0.111,-0.152 0.112,-0.161 0.112,-0.168C0.112,-0.18 0.11,-0.191 0.107,-0.199C0.104,-0.207 0.099,-0.214 0.093,-0.22C0.086,-0.226 0.078,-0.23 0.068,-0.233C0.059,-0.236 0.047,-0.238 0.034,-0.24L0.035,-0.263Z" style="fill:rgb(88,110,119);fill-rule:nonzero;"/>
                    </g>
                </g>
            </g>
            <g transform="matrix(0.14843,0,0,0.14843,1777.64,1330.71)">
                <g transform="matrix(281.578,0,0,281.578,953.434,2516.51)">
                    <path d="M0.318,0L0.235,0L0.235,-0.64L0.009,-0.64L0.009,-0.714L0.544,-0.714L0.544,-0.64L0.318,-0.64L0.318,0Z" style="fill-rule:nonzero;"/>
                </g>
                <g transform="matrix(281.578,0,0,281.578,1100.76,2516.51)">
                    <path d="M0.414,0L0.172,-0.633L0.168,-0.633C0.173,-0.583 0.175,-0.523 0.175,-0.454L0.175,0L0.098,0L0.098,-0.714L0.223,-0.714L0.449,-0.125L0.453,-0.125L0.681,-0.714L0.805,-0.714L0.805,0L0.722,0L0.722,-0.46C0.722,-0.513 0.724,-0.57 0.729,-0.632L0.725,-0.632L0.481,0L0.414,0Z" style="fill-rule:nonzero;"/>
                </g>
            </g>
        </g>
    </g>
</svg>
