<?xml version="1.0" encoding="UTF-8" standalone="no"?>
<!DOCTYPE svg PUBLIC "-//W3C//DTD SVG 1.1//EN" "http://www.w3.org/Graphics/SVG/1.1/DTD/svg11.dtd">
<svg
   xmlns="http://www.w3.org/2000/svg"
   width="119.78919mm"
   height="49.550438mm"
   viewBox="0 0 119.78919 49.550438"
   version="1.1"
   id="traqula">
  <g
     id="translation"
     transform="translate(-40.460668,-57.496832)">
   <g
      id="color"
      style="fill:#99050d;fill-opacity:1">
      <path
         d="m 100.3718,62.093511 q 0,1.339453 -2.678905,2.282031 -2.678908,0.917774 -6.548439,0.917774 -3.894336,0 -9.673828,-1.066602 -3.050976,1.5875 -5.581054,4.712891 -2.530078,3.100585 -5.432227,8.805663 -2.902148,5.705079 -4.266406,7.615039 -1.339453,1.885157 -3.695898,3.671094 -6.225977,4.613672 -12.923242,4.613672 -3.571875,0 -5.853907,-1.513086 -2.257226,-1.513086 -2.257226,-3.919141 0,-1.215429 0.719336,-2.083593 0.719336,-0.868164 1.711523,-0.868164 1.612305,0 1.612305,1.686718 0,0.79375 -0.496094,1.364258 -0.496094,0.570508 -1.215429,0.570508 -1.165821,0 -1.165821,-1.141016 0,-0.595312 -0.198437,-0.595312 -0.42168,0 -0.42168,1.21543 0,2.009179 2.058789,3.398242 2.083594,1.389062 5.109766,1.389062 6.647656,0 11.931054,-6.002734 2.480469,-2.80293 6.399609,-9.252148 6.39961,-10.467578 13.369727,-13.766602 -1.339453,-0.223242 -4.01836,-0.818554 -6.30039,-1.364258 -9.649023,-1.364258 -0.347265,0 -2.083594,0.09922 1.165821,2.182812 1.165821,4.985742 0,5.457031 -4.142383,10.244335 -4.142383,4.787305 -8.855273,4.787305 -1.959571,0 -3.199805,-1.289844 -1.21543,-1.314648 -1.21543,-3.373437 0,-2.827734 2.133203,-6.250781 2.158008,-3.447852 5.55625,-6.002735 3.423047,-2.579687 7.491016,-3.596679 -1.95957,-2.654102 -5.581055,-2.654102 -3.050976,0 -6.176367,1.785938 -3.100586,1.761133 -5.457031,4.812109 -0.347266,0.471289 -0.471289,0.471289 -0.148828,0 -0.198437,-0.148828 0,-0.42168 2.033984,-2.455664 4.886523,-4.861719 10.219531,-4.861719 4.142383,0 6.30039,2.902149 3.001368,-0.868164 6.895703,-0.868164 2.00918,0 3.671094,0.248046 1.761133,0.272852 8.632031,1.686719 5.729883,-2.505273 11.013281,-2.505273 5.432227,0 5.432227,2.133202 z m -0.396877,0.04961 q 0,-0.719336 -1.413864,-1.215429 -1.389061,-0.496094 -3.522267,-0.496094 -5.308203,0 -10.293945,2.232422 0.620117,0.09922 3.299023,0.595312 3.96875,0.768945 7.044532,0.768945 2.009176,0 3.447847,-0.545703 1.438674,-0.570507 1.438674,-1.339453 z m -34.652146,3.671093 q 0,-1.984375 -0.917773,-3.671094 -5.55625,0.917774 -10.343555,5.729883 -4.787305,4.812109 -4.787305,9.47539 0,1.785938 1.091407,3.001368 1.116211,1.215429 2.728515,1.215429 4.191992,0 8.210352,-5.159375 4.018359,-5.184179 4.018359,-10.591601 z"
         id="T" />
      <path
         d="m 85.629546,84.764995 c 0,0.132291 -0.496094,0.735872 -1.488281,1.810742 -1.256771,1.389063 -2.439127,2.083594 -3.54707,2.083594 -1.256771,0 -1.885156,-0.727604 -1.885156,-2.182813 0,-0.463021 0.09922,-1.050065 0.297656,-1.761132 -1.041797,0.909505 -1.893424,1.810741 -2.554883,2.70371 -0.644922,0.892969 -1.769401,2.71198 -3.373437,5.457032 -0.876433,-0.06615 -1.389063,-0.09922 -1.537891,-0.09922 -0.06615,0 -0.570509,0.03307 -1.513086,0.09922 l 4.067969,-6.598047 c 2.033984,-3.307292 3.050976,-5.357813 3.050976,-6.151563 0,-0.463021 -0.190169,-0.694531 -0.570507,-0.694531 -0.926042,0 -11.931223,7.884056 -13.977063,9.559598 0,0 -1.453882,0.428697 -0.271777,-0.475612 2.774187,-2.122252 13.537772,-9.456056 14.447277,-9.456056 1.322917,0 1.984375,0.851628 1.984375,2.554883 0,1.273307 -0.677995,2.960026 -2.033984,5.060156 0.859896,-0.992187 1.678451,-1.802474 2.455664,-2.43086 0.628385,-1.471745 1.405599,-2.703711 2.33164,-3.695898 0.942579,-0.992187 1.785938,-1.488281 2.530078,-1.488281 0.512631,0 0.768946,0.223242 0.768946,0.669726 0,0.79375 -1.149284,1.926498 -3.447852,3.398243 -0.363802,0.23151 -0.909505,0.570507 -1.637109,1.016992 l -0.297656,0.248047 c -0.231511,0.760677 -0.347266,1.389062 -0.347266,1.885156 0,1.389063 0.520898,2.083594 1.562695,2.083594 1.289844,0 2.695443,-1.066602 4.216797,-3.199805 0.330729,-0.363802 0.537435,-0.545703 0.620117,-0.545703 0.09922,0 0.148828,0.04961 0.148828,0.148828 z"
         id="R" />
      <path
         d="m 103.04244,84.764995 q 0,0.520898 -3.621488,4.812109 -2.926953,3.522266 -4.613671,3.522266 -1.141016,0 -1.860352,-0.84336 -0.719336,-0.868164 -0.719336,-2.158007 0,-1.339453 0.79375,-2.902149 -2.480469,3.472656 -3.795117,4.688086 -1.314648,1.21543 -2.554883,1.21543 -1.314648,0 -2.207617,-1.116211 -0.892969,-1.141016 -0.892969,-2.852539 0,-4.7625 6.72207,-8.433594 2.951758,-1.637109 4.7625,-1.637109 1.537891,0 1.537891,1.488281 0,0.42168 -0.198438,1.116211 l 1.26504,-2.406055 q 0.74414,0.173633 1.314648,0.173633 0.669727,0 1.736332,-0.173633 l -4.390434,7.267774 q -2.282031,3.819922 -2.282031,5.035351 0,1.16582 0.967383,1.16582 0.992188,0 3.175,-2.257226 2.182812,-2.282031 4.440042,-5.605859 0.14883,-0.248047 0.27285,-0.248047 0.14883,0 0.14883,0.148828 z m -6.821292,-4.117578 q 0,-1.21543 -1.116211,-1.21543 -2.282031,0 -6.002735,4.464844 -3.695898,4.464844 -3.695898,7.218164 0,1.612304 1.438672,1.612304 1.711523,0 5.92832,-5.680273 3.447852,-4.663281 3.447852,-6.399609 z"
         id="A" />
      <path
         id="Q"
         d="m 425.16992,298.80859 c -5.93748,0 -13.99998,3.40625 -24.1875,10.21875 -12.8125,8.5 -19.21875,17.78125 -19.21875,27.84375 0,4.1875 1.09374,7.75 3.28125,10.6875 2.25001,2.875 5.00001,4.3125 8.25,4.3125 5.12499,0 11.84374,-5.59375 20.15625,-16.78125 2.18754,-2.8125 3.4063,-4.40625 3.65625,-4.78125 l -23.57422,37.80079 c -5.09235,-1.42625 -12.82371,-3.30961 -20.33593,-3.98438 -10.02217,-0.90012 -17.84749,-0.58993 -23.51758,1.35938 -0.50269,0.18191 -6.83331,2.53629 -3.63477,3.2246 9.25329,-5.50095 30.48108,-1.12929 40.78906,2.64649 l 3.82422,1.36133 -17.51953,28.09179 c 1.875,-0.5 3.87501,-0.75 6,-0.75 1.875,0 3.84374,0.25 5.90625,0.75 2.125,-3.50002 3.71875,-6.0625 4.78125,-7.6875 3.88024,-6.47515 6.70942,-11.19705 10.22266,-17.06054 l 16.26172,5.78906 c 17.96231,6.12087 32.88071,9.79977 44.7539,11.03711 13.73809,1.43168 20.79254,0.36641 21.16407,-3.19727 -20.59046,3.11131 -35.85039,-1.21271 -79.31641,-18.41015 4.42312,-7.38237 9.45201,-15.77345 13.25781,-22.12696 14.18752,-23.1875 24.25002,-39.78125 30.1875,-49.78125 -3.12499,0.4375 -5.37498,0.65625 -6.75,0.65625 -1.81248,0 -3.28123,-0.15624 -4.40625,-0.46875 l -5.625,10.21875 c 0.9375,-2.3125 1.40625,-4.09375 1.40625,-5.34375 0,-3.75 -1.9375,-5.625 -5.8125,-5.625 z m 0.1875,1.40625 c 2.8125,0 4.21875,1.53125 4.21875,4.59375 0,4.625 -4.34375,12.8125 -13.03125,24.5625 -10.43749,14.0625 -17.84374,21.09375 -22.21875,21.09375 -3.62499,0 -5.4375,-2.03125 -5.4375,-6.09375 0,-6.9375 4.65625,-16.03125 13.96875,-27.28125 9.37499,-11.25 16.87501,-16.875 22.5,-16.875 z"
         transform="scale(0.26458333)" />
      <path
         d="m 133.67622,84.764995 q 0,0.570508 -3.59668,4.812109 -2.97656,3.522266 -4.71289,3.522266 -1.0914,0 -1.86035,-0.868164 -0.74414,-0.892969 -0.74414,-2.133203 0,-0.967383 0.96738,-2.703711 l -0.49609,0.669726 q -2.28203,2.926953 -3.34863,3.919141 -1.16582,1.116211 -2.20762,1.116211 -1.09141,0 -1.83555,-0.84336 -0.74414,-0.868164 -0.74414,-2.108398 0,-1.438672 1.11621,-3.299023 l 4.51446,-7.590235 q 0.84336,0.173633 1.31464,0.173633 0.47129,0 1.68672,-0.173633 l -5.90351,9.723438 q -0.89297,1.488281 -0.89297,2.629297 0,1.11621 0.94258,1.11621 2.50527,0 8.03672,-9.351367 l 2.43085,-4.117578 q 0.76895,0.173633 1.28985,0.173633 0.62012,0 1.76113,-0.173633 l -3.96875,6.474024 q -2.82773,4.613672 -2.82773,5.92832 0,1.066601 1.01699,1.066601 1.98437,0 6.44922,-6.250781 l 0.76894,-1.066601 0.44649,-0.545703 q 0.12402,-0.248047 0.24804,-0.248047 0.14883,0 0.14883,0.148828 z"
         id="U" />
      <path
         d="m 146.69868,67.178472 q -10.41797,17.338476 -12.15429,20.389453 -1.71153,3.050976 -1.71153,4.043164 0,1.11621 0.94258,1.11621 2.08359,0 7.63984,-7.863085 0.12403,-0.248047 0.29766,-0.248047 0.0992,0.0248 0.0992,0.148828 0,0.148828 -0.24805,0.396875 l -1.0666,1.463476 q -4.68809,6.474024 -6.92051,6.474024 -1.0666,0 -1.76113,-0.79375 -0.66973,-0.818555 -0.66973,-2.058789 0,-1.364258 0.62012,-2.629297 0.64492,-1.289844 4.31602,-7.391797 4.48964,-7.466211 7.56543,-12.948046 0.74414,0.198437 1.31464,0.198437 0.94258,0 1.73633,-0.297656 z"
         id="L" />
      <path
         d="m 159.24986,84.764995 q 0,0.520898 -3.62149,4.812109 -2.92695,3.522266 -4.61367,3.522266 -1.14101,0 -1.86035,-0.84336 -0.71934,-0.868164 -0.71934,-2.158007 0,-1.339453 0.79375,-2.902149 -2.48047,3.472656 -3.79511,4.688086 -1.31465,1.21543 -2.55489,1.21543 -1.31464,0 -2.20761,-1.116211 -0.89297,-1.141016 -0.89297,-2.852539 0,-4.7625 6.72207,-8.433594 2.95176,-1.637109 4.7625,-1.637109 1.53789,0 1.53789,1.488281 0,0.42168 -0.19844,1.116211 l 1.26504,-2.406055 q 0.74414,0.173633 1.31465,0.173633 0.66972,0 1.73633,-0.173633 l -4.39043,7.267774 q -2.28203,3.819922 -2.28203,5.035351 0,1.16582 0.96738,1.16582 0.99219,0 3.175,-2.257226 2.18281,-2.282031 4.44004,-5.605859 0.14883,-0.248047 0.27285,-0.248047 0.14883,0 0.14883,0.148828 z m -6.82129,-4.117578 q 0,-1.21543 -1.11621,-1.21543 -2.28203,0 -6.00274,4.464844 -3.6959,4.464844 -3.6959,7.218164 0,1.612304 1.43868,1.612304 1.71152,0 5.92832,-5.680273 3.44785,-4.663281 3.44785,-6.399609 z"
         id="A" />
   </g>
  </g>
</svg>
