<?xml version="1.0" encoding="UTF-8" standalone="no"?>
<!DOCTYPE svg PUBLIC "-//W3C//DTD SVG 1.1//EN" "http://www.w3.org/Graphics/SVG/1.1/DTD/svg11.dtd">
<svg width="100%" height="100%" viewBox="0 0 922 332" version="1.1" xmlns="http://www.w3.org/2000/svg" xmlns:xlink="http://www.w3.org/1999/xlink" xml:space="preserve" xmlns:serif="http://www.serif.com/" style="fill-rule:evenodd;clip-rule:evenodd;stroke-linejoin:round;stroke-miterlimit:2;">
    <g transform="matrix(1,0,0,1,-1293.28,-805.181)">
        <g transform="matrix(0.686641,0.000504396,-0.000504396,0.686641,923.416,329.589)">
            <g transform="matrix(1,0,0,1,-215.928,-337.466)">
                <path d="M849.445,1280.48C850.226,1263.81 850.617,1220.19 850.617,1149.62C850.617,1111.47 850.291,1086.01 849.64,1073.25C804.328,1075.72 778.872,1076.96 773.273,1076.96C766.893,1076.96 762.271,1075.79 759.406,1073.44C756.541,1071.1 755.109,1066.67 755.109,1060.16C755.109,1051.31 757.323,1041.61 761.75,1031.06C788.573,1037.44 822.297,1040.63 862.922,1040.63L994.367,1040.63C1000.49,1040.63 1005.01,1041.61 1007.94,1043.56C1010.87,1045.52 1012.34,1049.68 1012.34,1056.06C1012.34,1067.78 1008.88,1079.04 1001.98,1089.85C977.635,1078.78 949.315,1073.25 917.023,1073.25L912.14,1073.25C911.489,1086.01 911.164,1111.53 911.164,1149.81C911.164,1220.26 911.489,1263.81 912.14,1280.48L942.023,1280.48C944.367,1285.16 945.539,1289.98 945.539,1294.93C945.539,1299.49 944.692,1302.68 943,1304.5C941.307,1306.32 938.573,1307.24 934.797,1307.24L819.562,1307.24C817.218,1301.51 816.047,1295.97 816.047,1290.63C816.047,1287.12 817.023,1284.55 818.976,1282.92C820.929,1281.29 823.794,1280.48 827.57,1280.48L849.445,1280.48Z" style="fill:rgb(206,49,56);fill-rule:nonzero;"/>
            </g>
            <g transform="matrix(1,0,0,1,-215.928,-337.466)">
                <path d="M976.945,1123.64C976.945,1118.95 978.67,1115.89 982.121,1114.46C985.571,1113.03 1007.09,1111.73 1046.67,1110.56C1047.32,1116.02 1047.32,1123.58 1046.67,1133.21C1063.08,1123.58 1077.92,1117.07 1091.2,1113.68C1104.48,1110.29 1116.2,1108.6 1126.36,1108.6C1131.05,1108.6 1134.17,1109.15 1135.73,1110.26C1137.3,1111.37 1138.08,1113.94 1138.08,1117.98C1138.08,1125.14 1137,1132.59 1134.86,1140.34C1132.71,1148.09 1130.04,1153.07 1126.85,1155.28C1123.66,1157.5 1118.61,1159.12 1111.71,1160.16C1104.81,1161.21 1100.81,1161.47 1099.7,1160.94C1098.59,1160.42 1094.91,1156.06 1088.66,1147.86C1079.03,1147.86 1071.64,1151.34 1066.5,1158.31C1061.35,1165.28 1058.78,1183.21 1058.78,1212.12C1058.78,1238.55 1059.11,1261.34 1059.76,1280.48L1090.42,1280.48C1092.77,1284.77 1093.94,1289.59 1093.94,1294.93C1093.94,1299.49 1092.99,1302.68 1091.11,1304.5C1089.22,1306.32 1085.54,1307.24 1080.07,1307.24L980.461,1307.24C978.117,1301.77 976.945,1296.62 976.945,1291.81C976.945,1287.77 977.856,1284.87 979.679,1283.11C981.502,1281.36 984.432,1280.48 988.468,1280.48L1002.73,1280.48C1003.38,1261.34 1003.7,1239.14 1003.7,1213.88C1003.7,1177.42 1001.98,1155.87 998.527,1149.23C995.077,1142.59 989.054,1139.27 980.461,1139.27C978.117,1134.06 976.945,1128.85 976.945,1123.64Z" style="fill:rgb(206,49,56);fill-rule:nonzero;"/>
            </g>
            <g transform="matrix(1,0,0,1,-215.928,-337.466)">
                <path d="M1272.61,1292.19C1262.84,1297.14 1251.71,1301.54 1239.21,1305.38C1226.71,1309.22 1214.93,1311.14 1203.86,1311.14C1184.98,1311.14 1171.14,1306.78 1162.36,1298.06C1153.57,1289.33 1149.17,1277.09 1149.17,1261.34C1149.17,1239.33 1156.72,1222.99 1171.83,1212.31C1186.93,1201.64 1210.76,1196.3 1243.31,1196.3L1264.6,1196.3C1263.43,1176.25 1260.11,1162.54 1254.64,1155.18C1249.17,1147.83 1240.97,1144.15 1230.03,1144.15C1224.04,1144.15 1217.53,1144.93 1210.5,1146.49C1205.94,1155.09 1203.24,1159.64 1202.39,1160.16C1201.55,1160.68 1197.06,1161.86 1188.92,1163.68C1180.78,1165.5 1175.02,1164.92 1171.63,1161.92C1168.25,1158.93 1164.83,1153.65 1161.38,1146.1C1157.93,1138.55 1156.2,1132.17 1156.2,1126.96C1156.2,1123.71 1157.54,1121.17 1160.21,1119.34C1162.88,1117.52 1172.74,1115.57 1189.8,1113.49C1206.85,1111.4 1225.02,1110.36 1244.29,1110.36C1267.2,1110.36 1285.17,1114.3 1298.19,1122.18C1311.22,1130.05 1317.73,1145.32 1317.73,1167.98L1317.73,1219.74C1317.73,1248.51 1318.96,1266.19 1321.44,1272.76C1323.91,1279.34 1328.34,1281.91 1334.72,1280.48C1336.67,1284.12 1337.65,1287.7 1337.65,1291.22C1337.65,1297.08 1334.16,1301.54 1327.2,1304.6C1320.23,1307.66 1310.83,1309.19 1298.98,1309.19C1293.77,1309.19 1289.67,1308.54 1286.67,1307.24C1283.68,1305.93 1278.99,1300.92 1272.61,1292.19ZM1264.6,1227.35C1255.23,1225.4 1245.72,1224.42 1236.09,1224.42C1225.15,1224.42 1217.34,1226.25 1212.65,1229.89C1207.96,1233.54 1205.62,1240.44 1205.62,1250.59C1205.62,1259.45 1207.93,1266.12 1212.55,1270.61C1217.17,1275.11 1223.91,1277.35 1232.77,1277.35C1239.8,1277.35 1246.01,1275.85 1251.42,1272.86C1256.82,1269.87 1260.37,1265.6 1262.06,1260.07C1263.76,1254.53 1264.6,1247.34 1264.6,1238.49L1264.6,1227.35Z" style="fill:rgb(206,49,56);fill-rule:nonzero;"/>
            </g>
            <g transform="matrix(1,0,0,1,-215.928,-337.466)">
                <path d="M1752.8,1220.91C1752.8,1246.82 1753.75,1262.87 1755.64,1269.05C1757.52,1275.24 1762.31,1278 1769.99,1277.35C1771.82,1281.65 1772.73,1285.75 1772.73,1289.66C1772.73,1296.04 1767.97,1300.89 1758.47,1304.21C1748.96,1307.53 1740.24,1309.19 1732.3,1309.19C1726.18,1309.19 1721.88,1308.24 1719.41,1306.36C1716.93,1304.47 1713.09,1299.75 1707.88,1292.19C1695.77,1298.32 1684.15,1303 1673.02,1306.26C1661.89,1309.51 1650.01,1311.14 1637.38,1311.14C1620.71,1311.14 1607.62,1306.75 1598.12,1297.96C1588.61,1289.17 1583.86,1271.3 1583.86,1244.34C1583.86,1204.11 1583.63,1179.27 1583.17,1169.83C1582.72,1160.39 1581.71,1153.49 1580.15,1149.13C1578.59,1144.77 1576.5,1142.03 1573.9,1140.93C1571.29,1139.82 1567.52,1139.27 1562.57,1139.27C1560.23,1135.62 1559.05,1131.39 1559.05,1126.57C1559.05,1120.58 1562.7,1116.41 1569.99,1114.07C1577.28,1111.73 1588.81,1110.56 1604.56,1110.56C1615.89,1110.56 1623.9,1111.24 1628.59,1112.61C1633.27,1113.97 1636.17,1116.02 1637.28,1118.76C1638.38,1121.49 1638.94,1130.67 1638.94,1146.3L1638.94,1215.83C1638.94,1241.22 1641.35,1257.82 1646.16,1265.63C1650.98,1273.44 1657.82,1277.35 1666.67,1277.35C1673.31,1277.35 1679.43,1275.89 1685.03,1272.96C1690.63,1270.03 1694.15,1266.19 1695.58,1261.43C1697.01,1256.68 1697.73,1248.12 1697.73,1235.75C1697.73,1201.25 1697.66,1179.31 1697.53,1169.93C1697.4,1160.56 1696.68,1153.65 1695.38,1149.23C1694.08,1144.8 1692.42,1142.03 1690.4,1140.93C1688.38,1139.82 1684.9,1139.27 1679.95,1139.27C1677.61,1135.62 1676.44,1131.39 1676.44,1126.57C1676.44,1120.58 1680.12,1116.41 1687.47,1114.07C1694.83,1111.73 1705.15,1110.56 1718.43,1110.56C1729.76,1110.56 1737.77,1111.24 1742.45,1112.61C1747.14,1113.97 1750.04,1116.32 1751.14,1119.64C1752.25,1122.96 1752.8,1132.5 1752.8,1148.25L1752.8,1220.91Z" style="fill:rgb(206,49,56);fill-rule:nonzero;"/>
            </g>
            <g transform="matrix(1,0,0,1,-215.928,-337.466)">
                <path d="M1814.48,1213.09C1814.48,1153.98 1814.22,1116.87 1813.7,1101.77C1813.18,1086.66 1812.2,1076.34 1810.77,1070.81C1809.34,1065.28 1806.83,1061.69 1803.25,1060.07C1799.67,1058.44 1795.02,1057.62 1789.29,1057.62C1786.94,1052.29 1785.77,1046.95 1785.77,1041.61C1785.77,1036.14 1787.82,1032.66 1791.92,1031.16C1796.03,1029.66 1809.15,1028.91 1831.28,1028.91C1845.08,1028.91 1854.52,1029.47 1859.6,1030.57C1864.68,1031.68 1867.58,1033.73 1868.29,1036.73C1869.01,1039.72 1869.37,1043.95 1869.37,1049.42L1869.37,1199.62C1869.37,1236.86 1869.69,1263.81 1870.34,1280.48L1895.34,1280.48C1897.56,1284.77 1898.66,1289.59 1898.66,1294.93C1898.66,1299.49 1897.72,1302.68 1895.83,1304.5C1893.94,1306.32 1890.27,1307.24 1884.8,1307.24L1789.29,1307.24C1786.94,1301.77 1785.77,1296.62 1785.77,1291.81C1785.77,1287.77 1786.68,1284.87 1788.51,1283.11C1790.33,1281.36 1793.26,1280.48 1797.3,1280.48L1813.31,1280.48C1814.09,1263.81 1814.48,1241.35 1814.48,1213.09Z" style="fill:rgb(206,49,56);fill-rule:nonzero;"/>
            </g>
            <g transform="matrix(1,0,0,1,-215.928,-337.466)">
                <path d="M2032.02,1292.19C2022.26,1297.14 2011.12,1301.54 1998.62,1305.38C1986.12,1309.22 1974.34,1311.14 1963.27,1311.14C1944.39,1311.14 1930.56,1306.78 1921.77,1298.06C1912.98,1289.33 1908.59,1277.09 1908.59,1261.34C1908.59,1239.33 1916.14,1222.99 1931.24,1212.31C1946.35,1201.64 1970.17,1196.3 2002.73,1196.3L2024.02,1196.3C2022.84,1176.25 2019.52,1162.54 2014.05,1155.18C2008.59,1147.83 2000.38,1144.15 1989.44,1144.15C1983.46,1144.15 1976.94,1144.93 1969.91,1146.49C1965.36,1155.09 1962.65,1159.64 1961.81,1160.16C1960.96,1160.68 1956.47,1161.86 1948.33,1163.68C1940.19,1165.5 1934.43,1164.92 1931.05,1161.92C1927.66,1158.93 1924.24,1153.65 1920.79,1146.1C1917.34,1138.55 1915.62,1132.17 1915.62,1126.96C1915.62,1123.71 1916.95,1121.17 1919.62,1119.34C1922.29,1117.52 1932.15,1115.57 1949.21,1113.49C1966.27,1111.4 1984.43,1110.36 2003.7,1110.36C2026.62,1110.36 2044.59,1114.3 2057.61,1122.18C2070.63,1130.05 2077.14,1145.32 2077.14,1167.98L2077.14,1219.74C2077.14,1248.51 2078.38,1266.19 2080.85,1272.76C2083.32,1279.34 2087.75,1281.91 2094.13,1280.48C2096.09,1284.12 2097.06,1287.7 2097.06,1291.22C2097.06,1297.08 2093.58,1301.54 2086.61,1304.6C2079.65,1307.66 2070.24,1309.19 2058.39,1309.19C2053.18,1309.19 2049.08,1308.54 2046.09,1307.24C2043.09,1305.93 2038.4,1300.92 2032.02,1292.19ZM2024.02,1227.35C2014.64,1225.4 2005.13,1224.42 1995.5,1224.42C1984.56,1224.42 1976.75,1226.25 1972.06,1229.89C1967.38,1233.54 1965.03,1240.44 1965.03,1250.59C1965.03,1259.45 1967.34,1266.12 1971.97,1270.61C1976.59,1275.11 1983.33,1277.35 1992.18,1277.35C1999.21,1277.35 2005.43,1275.85 2010.83,1272.86C2016.24,1269.87 2019.78,1265.6 2021.48,1260.07C2023.17,1254.53 2024.02,1247.34 2024.02,1238.49L2024.02,1227.35Z" style="fill:rgb(206,49,56);fill-rule:nonzero;"/>
            </g>
            <path d="M1240.36,1029.05C1241.06,1028.98 1241.8,1028.95 1242.58,1028.95L1264.26,1028.95C1265.04,1009.81 1265.43,986.826 1265.43,960.003C1257.88,964.039 1249.19,967.327 1239.36,969.866C1229.53,972.405 1219.4,973.675 1208.99,973.675C1185.29,973.675 1167.74,966.676 1156.35,952.679C1144.96,938.681 1139.26,916.058 1139.26,884.808C1139.26,846.136 1148.5,817.49 1166.99,798.87C1185.48,780.25 1210.03,770.94 1240.63,770.94C1246.36,770.94 1251.79,771.201 1256.93,771.722C1262.08,772.243 1268.16,773.349 1275.2,775.042L1282.62,760.003C1295.77,760.003 1304.85,760.849 1309.87,762.542C1314.88,764.235 1318.04,766.937 1319.34,770.648C1320.64,774.358 1321.29,779.86 1321.29,787.151L1320.31,972.308C1320.31,990.927 1320.64,1009.81 1321.29,1028.95L1340.43,1028.95L1340.48,1029.05L1407.19,1029.05C1409.99,1037.11 1411.38,1045.95 1411.38,1055.57C1411.38,1061.78 1410.02,1066.82 1407.31,1070.7C1404.6,1074.58 1399.9,1076.51 1393.23,1076.51L1319.71,1076.51L1319.71,1170.98C1309.93,1173.62 1299.54,1174.94 1288.53,1174.94C1282.32,1174.94 1277.28,1173.62 1273.4,1170.98C1269.53,1168.34 1267.59,1163.61 1267.59,1156.79L1267.59,1076.51L1180.1,1076.51C1177.31,1066.74 1175.91,1058.52 1175.91,1051.85C1175.91,1043.47 1177.31,1037.58 1180.1,1034.17C1182.89,1030.75 1186.69,1029.05 1191.5,1029.05L1240.36,1029.05ZM1229.6,1056.98L1229.6,1047.68L1289.3,1047.68L1289.3,988.58L1298.3,988.58L1298.3,1047.68L1357.7,1047.68L1357.7,1056.98L1298.3,1056.98L1298.3,1116.98L1289.3,1116.98L1289.3,1056.98L1229.6,1056.98ZM1235.35,804.73C1224.03,804.73 1215.5,808.961 1209.77,817.425C1204.04,825.888 1201.17,841.644 1201.17,864.69C1201.17,893.727 1203.71,913.519 1208.79,924.065C1213.87,934.612 1222.01,939.886 1233.2,939.886C1240.24,939.886 1246.36,938.681 1251.56,936.273C1256.77,933.864 1260.38,929.567 1262.4,923.382C1264.42,917.197 1265.43,908.701 1265.43,897.894L1265.43,813.128C1261.13,810.784 1256.45,808.799 1251.37,807.171C1246.29,805.543 1240.95,804.73 1235.35,804.73Z" style="fill:rgb(206,49,56);"/>
        </g>
    </g>
</svg>
